<?xml version="1.0" encoding="utf-8"?>
<!-- Generator: Adobe Illustrator 25.2.1, SVG Export Plug-In . SVG Version: 6.00 Build 0)  -->
<svg version="1.1" id="Слой_1" xmlns="http://www.w3.org/2000/svg" xmlns:xlink="http://www.w3.org/1999/xlink" x="0px" y="0px"
	 viewBox="0 0 432.8 472.8" style="enable-background:new 0 0 432.8 472.8;" xml:space="preserve">
<style type="text/css">
	.st0{fill:none;stroke:#929497;stroke-linecap:round;}
	.st1{fill:#929497;}
	.st2{fill:none;stroke:#61CAD6;}
	.st3{fill:#3FC3D6;stroke:#CCCBCA;stroke-width:0.75;}
	.st4{fill:none;stroke:#929497;}
	.st5{fill:#3FC3D6;}
	.st6{fill:#263852;}
	.st7{fill:#FFFFFF;}
	.st8{fill:none;stroke:#CCD962;stroke-linecap:round;stroke-linejoin:round;}
	.st9{fill:#CCD962;stroke:#CCCBCA;stroke-width:0.75;stroke-linecap:round;stroke-linejoin:round;}
	.st10{enable-background:new    ;}
	.st11{fill:#CCD962;}
	.st12{fill:#263852;stroke:#CCCBCA;stroke-width:0.75;stroke-linecap:round;stroke-linejoin:round;}
</style>
<g>
	<g>
		<g>
			<g>
				<g>
					<g>
						<path class="st0" d="M152.4,72.4l-16.5-0.1c-3.2,0-5.7,2.6-5.7,5.7l0.1,102.6c0,3.2-2.6,5.7-5.7,5.7l-19.2,0.2"/>
						<g>
							<polygon class="st1" points="151,67.4 159.6,72.5 150.9,77.4 							"/>
						</g>
					</g>
				</g>
			</g>
		</g>
	</g>
</g>
<g>
	<g>
		<g>
			<g>
				<g>
					<g>
						<path class="st0" d="M106,280.5l19.2,0.2c3.1,0,5.7,2.5,5.7,5.7L130.8,389c0,3.1,2.5,5.7,5.7,5.7l16.5-0.1"/>
						<g>
							<polygon class="st1" points="151.6,399.6 160.2,394.5 151.5,389.6 							"/>
						</g>
					</g>
				</g>
			</g>
		</g>
	</g>
</g>
<g>
	<g>
		<g>
			<g>
				<line class="st0" x1="264.9" y1="74.7" x2="291.1" y2="74.9"/>
				<g>
					<polygon class="st1" points="289.6,79.8 298.3,74.9 289.6,69.9 					"/>
				</g>
			</g>
		</g>
	</g>
</g>
<g>
	<g>
		<g>
			<g>
				<line class="st0" x1="106" y1="228.7" x2="153.2" y2="228.9"/>
				<g>
					<polygon class="st1" points="151.8,233.9 160.4,228.9 151.8,223.9 					"/>
				</g>
			</g>
		</g>
	</g>
</g>
<path class="st2" d="M92.4,237h-76c-1.8,0-3.2-0.7-3.2-1.5v-48.1c0-0.9,1.5-1.5,3.2-1.5h76c1.8,0,3.2,0.7,3.2,1.5v48.1
	C95.6,236.3,94.2,237,92.4,237z"/>
<path class="st2" d="M92.4,295.4h-76c-1.8,0-3.2-0.7-3.2-1.5v-48.1c0-0.9,1.5-1.5,3.2-1.5h76c1.8,0,3.2,0.7,3.2,1.5v48.1
	C95.6,294.6,94.2,295.4,92.4,295.4z"/>
<path class="st3" d="M82.9,227.7H22.7c-1.6,0-3-0.8-3-1.7v-9.7c0-0.9,1.4-1.7,3-1.7h60.2c1.6,0,3,0.8,3,1.7v9.7
	C85.9,227,84.5,227.7,82.9,227.7z"/>
<path class="st3" d="M82.9,274.8H22.7c-1.6,0-3-0.8-3-1.7v-9.7c0-0.9,1.4-1.7,3-1.7h60.2c1.6,0,3,0.8,3,1.7v9.7
	C85.9,274.1,84.5,274.8,82.9,274.8z"/>
<path class="st3" d="M82.9,288H22.7c-1.6,0-3-0.8-3-1.7v-9.7c0-0.9,1.4-1.7,3-1.7h60.2c1.6,0,3,0.8,3,1.7v9.7
	C85.9,287.3,84.5,288,82.9,288z"/>
<path class="st4" d="M102.1,302.3h-97c-1.8,0-3.1-1.4-3.1-3v-133c0-1.8,1.4-3,3.1-3h97.1c1.8,0,3.1,1.4,3.1,3V299
	C105.3,300.7,103.9,302.3,102.1,302.3z"/>
<g>
	<path class="st5" d="M29.9,206.4H28l-0.8-2h-3.4l-0.7,2h-1.8l3.3-8.6h1.8L29.9,206.4z M26.7,203l-1.2-3.2l-1.2,3.2H26.7z"/>
</g>
<g>
	<g>
		<path class="st6" d="M29.8,179.9v-8.6h3.7c0.9,0,1.6,0.1,2,0.2s0.7,0.4,1,0.8s0.4,0.8,0.4,1.4c0,0.6-0.2,1.2-0.6,1.6
			s-0.9,0.7-1.7,0.8c0.4,0.2,0.7,0.5,0.9,0.7s0.6,0.7,1,1.4l1,1.7h-2.1l-1.3-1.9c-0.4-0.7-0.8-1.1-0.9-1.3s-0.3-0.3-0.5-0.4
			s-0.5-0.1-0.9-0.1h-0.4v3.6h-1.6C29.8,179.8,29.8,179.9,29.8,179.9z M31.6,175h1.3c0.8,0,1.4,0,1.6-0.1s0.4-0.2,0.5-0.4
			s0.2-0.4,0.2-0.6c0-0.3-0.1-0.5-0.2-0.7s-0.4-0.3-0.7-0.3c-0.1,0-0.6,0-1.3,0h-1.4V175z"/>
		<path class="st6" d="M38.5,171.3h3.2c0.7,0,1.3,0.1,1.6,0.2c0.5,0.1,0.9,0.4,1.3,0.8s0.6,0.8,0.8,1.4s0.3,1.2,0.3,2
			c0,0.7-0.1,1.3-0.3,1.8c-0.2,0.6-0.5,1.1-0.9,1.5c-0.3,0.3-0.7,0.5-1.2,0.7c-0.4,0.1-0.9,0.2-1.5,0.2h-3.3
			C38.5,179.9,38.5,171.3,38.5,171.3z M40.2,172.8v5.7h1.3c0.5,0,0.8,0,1-0.1c0.3-0.1,0.5-0.2,0.7-0.4s0.3-0.4,0.5-0.8
			s0.2-0.9,0.2-1.6s-0.1-1.2-0.2-1.5s-0.3-0.6-0.5-0.8s-0.5-0.3-0.8-0.4c-0.2-0.1-0.7-0.1-1.4-0.1L40.2,172.8L40.2,172.8z"/>
		<path class="st6" d="M47.1,171.3h3.2c0.7,0,1.3,0.1,1.6,0.2c0.5,0.1,0.9,0.4,1.3,0.8s0.6,0.8,0.8,1.4s0.3,1.2,0.3,2
			c0,0.7-0.1,1.3-0.3,1.8c-0.2,0.6-0.5,1.1-0.9,1.5c-0.3,0.3-0.7,0.5-1.2,0.7c-0.4,0.1-0.9,0.2-1.5,0.2h-3.3
			C47.1,179.9,47.1,171.3,47.1,171.3z M48.9,172.8v5.7h1.3c0.5,0,0.8,0,1-0.1c0.3-0.1,0.5-0.2,0.7-0.4s0.3-0.4,0.5-0.8
			s0.2-0.9,0.2-1.6s-0.1-1.2-0.2-1.5s-0.3-0.6-0.5-0.8s-0.5-0.3-0.8-0.4c-0.2-0.1-0.7-0.1-1.4-0.1L48.9,172.8L48.9,172.8z"/>
		<path class="st6" d="M56.1,175.3v-1.6h1.6v1.6H56.1z M56.1,179.9v-1.6h1.6v1.6H56.1z"/>
		<path class="st6" d="M62.3,179.9l2.2-3.2l-2.2-3h2l1.1,1.7l1.2-1.7h1.9l-2.1,2.9l2.3,3.3h-2l-1.3-1.9l-1.3,1.9H62.3z"/>
	</g>
</g>
<path class="st7" d="M33.4,282.7l1.3,0.4c-0.2,0.7-0.5,1.2-1,1.6c-0.4,0.3-1,0.5-1.7,0.5c-0.9,0-1.6-0.3-2.1-0.9
	c-0.6-0.6-0.8-1.4-0.8-2.4c0-1.1,0.3-1.9,0.8-2.5c0.6-0.6,1.3-0.9,2.2-0.9c0.8,0,1.4,0.2,1.9,0.7c0.3,0.3,0.5,0.7,0.7,1.2l-1.3,0.3
	c-0.1-0.3-0.2-0.6-0.5-0.8c-0.2-0.2-0.5-0.3-0.9-0.3c-0.5,0-0.9,0.2-1.2,0.5c-0.3,0.3-0.4,0.9-0.4,1.7c0,0.8,0.1,1.4,0.4,1.7
	c0.3,0.3,0.7,0.5,1.1,0.5c0.3,0,0.6-0.1,0.9-0.3C33.1,283.5,33.3,283.2,33.4,282.7z"/>
<path class="st7" d="M29.4,265.6H32c0.5,0,0.9,0,1.1,0.1c0.2,0,0.5,0.1,0.7,0.3c0.2,0.1,0.4,0.3,0.5,0.5s0.2,0.5,0.2,0.8
	s-0.1,0.6-0.2,0.8c-0.2,0.3-0.4,0.4-0.7,0.6c0.4,0.1,0.7,0.3,0.9,0.6c0.2,0.3,0.3,0.6,0.3,1c0,0.3-0.1,0.6-0.2,0.9
	c-0.1,0.3-0.3,0.5-0.6,0.7c-0.2,0.2-0.5,0.3-0.9,0.3c-0.2,0-0.7,0-1.6,0h-2.2v-6.6L29.4,265.6L29.4,265.6z M30.7,266.6v1.5h0.9
	c0.5,0,0.8,0,0.9,0c0.2,0,0.4-0.1,0.5-0.2s0.2-0.3,0.2-0.5s-0.1-0.4-0.2-0.5c-0.1-0.1-0.3-0.2-0.5-0.2c-0.1,0-0.5,0-1.1,0
	L30.7,266.6C30.7,266.7,30.7,266.6,30.7,266.6z M30.7,269.2v1.7h1.2c0.5,0,0.8,0,0.9,0c0.2,0,0.4-0.1,0.5-0.3
	c0.1-0.1,0.2-0.3,0.2-0.5s0-0.4-0.1-0.5s-0.2-0.2-0.4-0.3c-0.2-0.1-0.6-0.1-1.2-0.1L30.7,269.2L30.7,269.2z"/>
<path class="st7" d="M35.2,224.3h-1.4l-0.6-1.5h-2.6l-0.5,1.5h-1.4l2.5-6.4h1.4L35.2,224.3z M32.8,221.8l-0.9-2.4l-0.9,2.4H32.8z"/>
<path class="st8" d="M410.7,72h-97.8c-1.6,0-2.8-0.7-2.8-1.4V28.3c0-0.9,1.3-1.4,2.8-1.4h97.8c1.6,0,2.8,0.7,2.8,1.4v42.3
	C413.5,71.4,412.2,72,410.7,72z"/>
<path class="st8" d="M411.6,138.5h-97.8c-1.6,0-2.8-0.8-2.8-1.8V83.8c0-1.1,1.3-1.8,2.8-1.8h97.8c1.6,0,2.8,0.8,2.8,1.8v52.9
	C414.4,137.7,413.1,138.5,411.6,138.5z"/>
<path class="st9" d="M399,61.4h-68.4V48.3H399c0.9,0,1.7,0.8,1.7,1.7v9.7C400.7,60.7,399.9,61.4,399,61.4z"/>
<path class="st9" d="M399.4,116.3H331v-13.1h68.4c0.9,0,1.7,0.8,1.7,1.7v9.7C401.1,115.5,400.4,116.3,399.4,116.3z"/>
<path class="st9" d="M399.4,129.7H331v-13.1h68.4c0.9,0,1.7,0.8,1.7,1.7v9.7C401.1,128.9,400.4,129.7,399.4,129.7z"/>
<g>
	<g class="st10">
		<path class="st6" d="M342.9,58.3h-1.2v-4.7c-0.5,0.4-1,0.7-1.6,0.9v-1.1c0.3-0.1,0.7-0.3,1.1-0.6s0.6-0.6,0.8-1h1L342.9,58.3
			L342.9,58.3z"/>
	</g>
</g>
<path class="st4" d="M427.2,148.8h-125c-1.7,0-3-1.7-3-3.5V6.7c0-2.1,1.4-3.5,3-3.5h125c1.7,0,3,1.7,3,3.5v138.5
	C430.2,147.1,428.8,148.8,427.2,148.8z"/>
<g class="st10">
	<path class="st11" d="M327.4,41.6h-1.9l-0.8-2h-3.4l-0.7,2h-1.8l3.3-8.6h1.8L327.4,41.6z M324.2,38.2L323,35l-1.2,3.2H324.2z"/>
</g>
<g>
	<g>
		<path class="st6" d="M344.8,18.3V9.7h3.7c0.9,0,1.6,0.1,2,0.2s0.7,0.4,1,0.8c0.3,0.4,0.4,0.8,0.4,1.4c0,0.6-0.2,1.2-0.6,1.6
			c-0.4,0.4-0.9,0.7-1.7,0.8c0.4,0.2,0.7,0.5,0.9,0.7c0.2,0.2,0.6,0.7,1,1.4l1,1.7h-2.1l-1.3-1.9c-0.4-0.7-0.8-1.1-0.9-1.3
			s-0.3-0.3-0.5-0.4c-0.2-0.1-0.5-0.1-0.9-0.1h-0.4v3.6L344.8,18.3L344.8,18.3z M346.5,13.4h1.3c0.8,0,1.4,0,1.6-0.1
			s0.4-0.2,0.5-0.4s0.2-0.4,0.2-0.6c0-0.3-0.1-0.5-0.2-0.7s-0.4-0.3-0.7-0.3c-0.1,0-0.6,0-1.3,0h-1.4V13.4L346.5,13.4z"/>
		<path class="st6" d="M353.4,9.7h3.2c0.7,0,1.3,0.1,1.6,0.2c0.5,0.1,0.9,0.4,1.3,0.8s0.6,0.8,0.8,1.4s0.3,1.2,0.3,2
			c0,0.7-0.1,1.3-0.3,1.8c-0.2,0.6-0.5,1.1-0.9,1.5c-0.3,0.3-0.7,0.5-1.2,0.7c-0.4,0.1-0.9,0.2-1.5,0.2h-3.3V9.7z M355.2,11.2v5.7
			h1.3c0.5,0,0.8,0,1-0.1c0.3-0.1,0.5-0.2,0.7-0.4s0.3-0.4,0.5-0.8s0.2-0.9,0.2-1.6s-0.1-1.2-0.2-1.5s-0.3-0.6-0.5-0.8
			s-0.5-0.3-0.8-0.4c-0.2-0.1-0.7-0.1-1.4-0.1C356,11.2,355.2,11.2,355.2,11.2z"/>
		<path class="st6" d="M362.1,9.7h3.2c0.7,0,1.3,0.1,1.6,0.2c0.5,0.1,0.9,0.4,1.3,0.8s0.6,0.8,0.8,1.4s0.3,1.2,0.3,2
			c0,0.7-0.1,1.3-0.3,1.8c-0.2,0.6-0.5,1.1-0.9,1.5c-0.3,0.3-0.7,0.5-1.2,0.7c-0.4,0.1-0.9,0.2-1.5,0.2h-3.3V9.7z M363.8,11.2v5.7
			h1.3c0.5,0,0.8,0,1-0.1c0.3-0.1,0.5-0.2,0.7-0.4s0.3-0.4,0.5-0.8s0.2-0.9,0.2-1.6s-0.1-1.2-0.2-1.5s-0.3-0.6-0.5-0.8
			s-0.5-0.3-0.8-0.4c-0.2-0.1-0.7-0.1-1.4-0.1C364.6,11.2,363.8,11.2,363.8,11.2z"/>
		<path class="st6" d="M371.1,13.7v-1.6h1.6v1.6H371.1z M371.1,18.3v-1.6h1.6v1.6H371.1z"/>
		<path class="st6" d="M377.4,18.3V17l2.3-2.7c0.4-0.4,0.7-0.7,0.8-0.9c-0.2,0-0.4,0-0.8,0h-2.2V12h5.1v1.2l-2.4,2.7l-0.8,0.9
			c0.5,0,0.7,0,0.8,0h2.5v1.4L377.4,18.3L377.4,18.3z"/>
	</g>
</g>
<rect x="317.5" y="48.3" class="st12" width="13.1" height="13.1"/>
<rect x="317.9" y="116.6" class="st12" width="13.1" height="13.1"/>
<rect x="317.9" y="103.2" class="st12" width="13.1" height="13.1"/>
<path class="st7" d="M325.6,124l1.3,0.4c-0.2,0.7-0.5,1.2-1,1.6c-0.4,0.3-1,0.5-1.7,0.5c-0.9,0-1.6-0.3-2.1-0.9
	c-0.6-0.6-0.8-1.4-0.8-2.4c0-1.1,0.3-1.9,0.8-2.5c0.6-0.6,1.3-0.9,2.2-0.9c0.8,0,1.4,0.2,1.9,0.7c0.3,0.3,0.5,0.7,0.7,1.2l-1.3,0.3
	c-0.1-0.3-0.2-0.6-0.5-0.8c-0.2-0.2-0.5-0.3-0.9-0.3c-0.5,0-0.9,0.2-1.2,0.5c-0.3,0.3-0.4,0.9-0.4,1.7s0.1,1.4,0.4,1.7
	s0.7,0.5,1.1,0.5c0.3,0,0.6-0.1,0.9-0.3S325.5,124.5,325.6,124z"/>
<path class="st7" d="M321.6,106.9h2.6c0.5,0,0.9,0,1.1,0.1c0.2,0,0.5,0.1,0.7,0.3c0.2,0.1,0.4,0.3,0.5,0.5s0.2,0.5,0.2,0.8
	s-0.1,0.6-0.2,0.8c-0.2,0.3-0.4,0.4-0.7,0.6c0.4,0.1,0.7,0.3,0.9,0.6c0.2,0.3,0.3,0.6,0.3,1c0,0.3-0.1,0.6-0.2,0.9s-0.3,0.5-0.6,0.7
	c-0.2,0.2-0.5,0.3-0.9,0.3c-0.2,0-0.7,0-1.6,0h-2.2v-6.6C321.5,106.9,321.6,106.9,321.6,106.9z M322.9,107.9v1.5h0.9
	c0.5,0,0.8,0,0.9,0c0.2,0,0.4-0.1,0.5-0.2s0.2-0.3,0.2-0.5s-0.1-0.4-0.2-0.5s-0.3-0.2-0.5-0.2c-0.1,0-0.5,0-1.1,0h-0.7L322.9,107.9
	L322.9,107.9z M322.9,110.5v1.7h1.2c0.5,0,0.8,0,0.9,0c0.2,0,0.4-0.1,0.5-0.3c0.1-0.1,0.2-0.3,0.2-0.5s0-0.4-0.1-0.5
	s-0.2-0.2-0.4-0.3c-0.2-0.1-0.6-0.1-1.2-0.1L322.9,110.5L322.9,110.5z"/>
<path class="st7" d="M326.9,58.1h-1.4l-0.6-1.5h-2.6l-0.5,1.5h-1.4l2.5-6.4h1.4L326.9,58.1z M324.5,55.6l-0.9-2.4l-0.9,2.4H324.5z"
	/>
<g>
	<path class="st5" d="M22.2,248.6h3.4c0.7,0,1.2,0,1.5,0.1s0.6,0.2,0.9,0.4s0.5,0.4,0.7,0.7s0.3,0.6,0.3,1s-0.1,0.8-0.3,1.1
		s-0.5,0.6-0.9,0.8c0.5,0.2,0.9,0.4,1.2,0.8s0.4,0.8,0.4,1.3c0,0.4-0.1,0.8-0.3,1.1c-0.2,0.3-0.4,0.7-0.7,0.9s-0.7,0.4-1.2,0.4
		c-0.3,0-1,0.1-2.1,0.1h-2.9V248.6z M23.9,250v2H25c0.7,0,1.1,0,1.3,0c0.3,0,0.5-0.1,0.7-0.3s0.3-0.4,0.3-0.7s-0.1-0.5-0.2-0.6
		s-0.4-0.3-0.7-0.3c-0.2,0-0.7,0-1.5,0L23.9,250L23.9,250z M23.9,253.5v2.3h1.6c0.6,0,1,0,1.2-0.1c0.3,0,0.5-0.2,0.6-0.3
		s0.2-0.4,0.2-0.7s-0.1-0.5-0.2-0.7s-0.3-0.3-0.5-0.4s-0.7-0.1-1.5-0.1H23.9z"/>
</g>
<path class="st2" d="M251,78.1h-76c-1.8,0-3.2-0.7-3.2-1.5V28.5c0-0.9,1.5-1.5,3.2-1.5h76c1.8,0,3.2,0.7,3.2,1.5v48.1
	C254.2,77.3,252.8,78.1,251,78.1z"/>
<path class="st2" d="M251,136.4h-76c-1.8,0-3.2-0.7-3.2-1.5V86.8c0-0.9,1.5-1.5,3.2-1.5h76c1.8,0,3.2,0.7,3.2,1.5v48.1
	C254.2,135.7,252.8,136.4,251,136.4z"/>
<path class="st3" d="M241.5,68.8h-60.2c-1.6,0-3-0.8-3-1.7v-9.7c0-0.9,1.4-1.7,3-1.7h60.2c1.6,0,3,0.8,3,1.7v9.7
	C244.5,68.1,243.1,68.8,241.5,68.8z"/>
<path class="st3" d="M241.5,115.9h-60.2c-1.6,0-3-0.8-3-1.7v-9.7c0-0.9,1.4-1.7,3-1.7h60.2c1.6,0,3,0.8,3,1.7v9.7
	C244.5,115.2,243.1,115.9,241.5,115.9z"/>
<path class="st3" d="M241.5,129.1h-60.2c-1.6,0-3-0.8-3-1.7v-9.7c0-0.9,1.4-1.7,3-1.7h60.2c1.6,0,3,0.8,3,1.7v9.7
	C244.5,128.4,243.1,129.1,241.5,129.1z"/>
<path class="st4" d="M260.7,143.3h-97c-1.8,0-3.1-1.4-3.1-3V7.4c0-1.8,1.4-3,3.1-3h97.1c1.8,0,3.1,1.4,3.1,3V140
	C263.9,141.8,262.5,143.3,260.7,143.3z"/>
<g>
	<path class="st5" d="M188.5,47.5h-1.9l-0.8-2h-3.4l-0.7,2h-1.8l3.3-8.6h1.8L188.5,47.5z M185.3,44.1l-1.2-3.2l-1.2,3.2H185.3z"/>
</g>
<g>
	<g>
		<path class="st6" d="M188.4,21v-8.6h3.7c0.9,0,1.6,0.1,2,0.2c0.4,0.1,0.7,0.4,1,0.8c0.3,0.4,0.4,0.8,0.4,1.4
			c0,0.6-0.2,1.2-0.6,1.6c-0.4,0.4-0.9,0.7-1.7,0.8c0.4,0.2,0.7,0.5,0.9,0.7s0.6,0.7,1,1.4l1,1.7H194l-1.3-1.9
			c-0.4-0.7-0.8-1.1-0.9-1.3s-0.3-0.3-0.5-0.4s-0.5-0.1-0.9-0.1H190v3.6L188.4,21C188.4,20.9,188.4,21,188.4,21z M190.2,16.1h1.3
			c0.8,0,1.4,0,1.6-0.1s0.4-0.2,0.5-0.4s0.2-0.4,0.2-0.6c0-0.3-0.1-0.5-0.2-0.7s-0.4-0.3-0.7-0.3c-0.1,0-0.6,0-1.3,0h-1.4
			C190.2,14,190.2,16.1,190.2,16.1z"/>
		<path class="st6" d="M197.1,12.4h3.2c0.7,0,1.3,0.1,1.6,0.2c0.5,0.1,0.9,0.4,1.3,0.8s0.6,0.8,0.8,1.4c0.2,0.6,0.3,1.2,0.3,2
			c0,0.7-0.1,1.3-0.3,1.8c-0.2,0.6-0.5,1.1-0.9,1.5c-0.3,0.3-0.7,0.5-1.2,0.7c-0.4,0.1-0.9,0.2-1.5,0.2h-3.3
			C197.1,21,197.1,12.4,197.1,12.4z M198.8,13.9v5.7h1.3c0.5,0,0.8,0,1-0.1c0.3-0.1,0.5-0.2,0.7-0.4c0.2-0.2,0.3-0.4,0.5-0.8
			s0.2-0.9,0.2-1.6s-0.1-1.2-0.2-1.5c-0.1-0.3-0.3-0.6-0.5-0.8s-0.5-0.3-0.8-0.4c-0.2-0.1-0.7-0.1-1.4-0.1L198.8,13.9L198.8,13.9z"
			/>
		<path class="st6" d="M205.7,12.4h3.2c0.7,0,1.3,0.1,1.6,0.2c0.5,0.1,0.9,0.4,1.3,0.8c0.4,0.4,0.6,0.8,0.8,1.4s0.3,1.2,0.3,2
			c0,0.7-0.1,1.3-0.3,1.8c-0.2,0.6-0.5,1.1-0.9,1.5c-0.3,0.3-0.7,0.5-1.2,0.7c-0.4,0.1-0.9,0.2-1.5,0.2h-3.3
			C205.7,21,205.7,12.4,205.7,12.4z M207.5,13.9v5.7h1.3c0.5,0,0.8,0,1-0.1c0.3-0.1,0.5-0.2,0.7-0.4s0.3-0.4,0.5-0.8
			s0.2-0.9,0.2-1.6s-0.1-1.2-0.2-1.5s-0.3-0.6-0.5-0.8s-0.5-0.3-0.8-0.4c-0.2-0.1-0.7-0.1-1.4-0.1L207.5,13.9L207.5,13.9z"/>
		<path class="st6" d="M214.7,16.4v-1.6h1.6v1.6H214.7z M214.7,21v-1.6h1.6V21H214.7z"/>
	</g>
</g>
<g>
	<path class="st5" d="M180.8,89.7h3.4c0.7,0,1.2,0,1.5,0.1s0.6,0.2,0.9,0.4s0.5,0.4,0.7,0.7s0.3,0.6,0.3,1s-0.1,0.8-0.3,1.1
		s-0.5,0.6-0.9,0.8c0.5,0.2,0.9,0.4,1.2,0.8s0.4,0.8,0.4,1.3c0,0.4-0.1,0.8-0.3,1.1s-0.4,0.7-0.7,0.9s-0.7,0.4-1.2,0.4
		c-0.3,0-1,0.1-2.1,0.1h-2.9L180.8,89.7L180.8,89.7z M182.5,91.1v2h1.1c0.7,0,1.1,0,1.3,0c0.3,0,0.5-0.1,0.7-0.3s0.3-0.4,0.3-0.7
		c0-0.3-0.1-0.5-0.2-0.6s-0.4-0.3-0.7-0.3c-0.2,0-0.7,0-1.5,0L182.5,91.1L182.5,91.1z M182.5,94.5v2.3h1.6c0.6,0,1,0,1.2-0.1
		c0.3,0,0.5-0.2,0.6-0.3s0.2-0.4,0.2-0.7c0-0.3-0.1-0.5-0.2-0.7s-0.3-0.3-0.5-0.4s-0.7-0.1-1.5-0.1
		C183.9,94.5,182.5,94.5,182.5,94.5z"/>
</g>
<g>
	<path class="st11" d="M319.5,89h3.4c0.7,0,1.2,0,1.5,0.1s0.6,0.2,0.9,0.4s0.5,0.4,0.7,0.7s0.3,0.6,0.3,1s-0.1,0.8-0.3,1.1
		s-0.5,0.6-0.9,0.8c0.5,0.2,0.9,0.4,1.2,0.8s0.4,0.8,0.4,1.3c0,0.4-0.1,0.8-0.3,1.1s-0.4,0.7-0.7,0.9s-0.7,0.4-1.2,0.4
		c-0.3,0-1,0.1-2.1,0.1h-2.9V89z M321.2,90.4v2h1.1c0.7,0,1.1,0,1.3,0c0.3,0,0.5-0.1,0.7-0.3s0.3-0.4,0.3-0.7c0-0.3-0.1-0.5-0.2-0.6
		s-0.4-0.3-0.7-0.3c-0.2,0-0.7,0-1.5,0L321.2,90.4L321.2,90.4z M321.2,93.9v2.3h1.6c0.6,0,1,0,1.2-0.1c0.3,0,0.5-0.2,0.6-0.3
		s0.2-0.4,0.2-0.7c0-0.3-0.1-0.5-0.2-0.7s-0.3-0.3-0.5-0.4s-0.7-0.1-1.5-0.1C322.6,93.9,321.2,93.9,321.2,93.9z"/>
</g>
<g>
	<path class="st6" d="M221,14.7h1.8l1.5,4.4l1.5-4.4h1.7l-2.2,6l-0.4,1.1c-0.1,0.4-0.3,0.6-0.4,0.8s-0.3,0.3-0.5,0.5
		s-0.4,0.2-0.6,0.3s-0.5,0.1-0.8,0.1s-0.6,0-0.9-0.1l-0.1-1.3c0.3,0.1,0.5,0.1,0.7,0.1c0.4,0,0.7-0.1,0.8-0.3s0.3-0.5,0.4-0.9
		L221,14.7z"/>
</g>
<g>
	<g>
		<path class="st7" d="M190.6,65.6h-1.4v-5.2c-0.5,0.5-1.1,0.8-1.8,1v-1.2c0.4-0.1,0.7-0.3,1.2-0.7c0.4-0.3,0.7-0.7,0.9-1.1h1.1
			V65.6z"/>
	</g>
	<g>
		<path class="st7" d="M191.4,111.6v1.3h-4.8c0.1-0.5,0.2-0.9,0.5-1.4c0.3-0.4,0.8-1,1.5-1.7c0.6-0.6,1-1,1.1-1.2
			c0.2-0.3,0.3-0.6,0.3-0.8c0-0.3-0.1-0.5-0.2-0.7c-0.2-0.2-0.4-0.2-0.7-0.2s-0.5,0.1-0.7,0.3c-0.2,0.2-0.3,0.5-0.3,0.9l-1.4-0.1
			c0.1-0.8,0.3-1.3,0.8-1.6c0.5-0.3,1-0.5,1.6-0.5c0.7,0,1.3,0.2,1.7,0.6s0.6,0.9,0.6,1.4c0,0.3-0.1,0.6-0.2,0.9
			c-0.1,0.3-0.3,0.6-0.5,0.9c-0.2,0.2-0.5,0.5-0.9,0.9s-0.7,0.7-0.8,0.8c-0.1,0.1-0.2,0.3-0.3,0.4h2.7L191.4,111.6L191.4,111.6z"/>
	</g>
	<g>
		<path class="st7" d="M186.7,124l1.3-0.2c0,0.3,0.2,0.6,0.3,0.8c0.1,0.2,0.4,0.3,0.7,0.3s0.5-0.1,0.7-0.3c0.2-0.2,0.3-0.5,0.3-0.9
			c0-0.3-0.1-0.6-0.3-0.8c-0.2-0.2-0.4-0.3-0.7-0.3c-0.2,0-0.4,0-0.6,0.1l0.2-1.1c0.4,0,0.7-0.1,0.8-0.2c0.2-0.2,0.3-0.4,0.3-0.7
			c0-0.2-0.1-0.4-0.2-0.6c-0.1-0.2-0.3-0.2-0.6-0.2c-0.2,0-0.4,0.1-0.6,0.2c-0.2,0.1-0.3,0.4-0.3,0.7l-1.3-0.2
			c0.1-0.4,0.2-0.8,0.4-1c0.2-0.3,0.4-0.5,0.7-0.6s0.7-0.2,1.1-0.2c0.7,0,1.2,0.2,1.6,0.6c0.3,0.4,0.5,0.7,0.5,1.2
			c0,0.6-0.3,1.1-1,1.5c0.4,0.1,0.7,0.3,1,0.6c0.3,0.3,0.4,0.7,0.4,1.1c0,0.6-0.2,1.2-0.7,1.6s-1,0.7-1.7,0.7
			c-0.6,0-1.2-0.2-1.6-0.6C187,125.1,186.8,124.6,186.7,124z"/>
	</g>
</g>
<g>
	<g>
		<path class="st6" d="M344.6,111.7v1.1h-4.3c0-0.4,0.2-0.8,0.4-1.2c0.2-0.4,0.7-0.9,1.4-1.5c0.6-0.5,0.9-0.9,1-1.1
			c0.2-0.3,0.3-0.5,0.3-0.8s-0.1-0.5-0.2-0.6s-0.4-0.2-0.6-0.2c-0.3,0-0.5,0.1-0.6,0.2s-0.2,0.4-0.3,0.8l-1.2-0.1
			c0.1-0.7,0.3-1.2,0.7-1.5s0.9-0.4,1.5-0.4s1.1,0.2,1.5,0.5s0.5,0.8,0.5,1.3c0,0.3-0.1,0.6-0.2,0.8c-0.1,0.3-0.3,0.5-0.5,0.8
			c-0.1,0.2-0.4,0.5-0.8,0.8s-0.6,0.6-0.7,0.7s-0.2,0.2-0.3,0.3L344.6,111.7L344.6,111.7z"/>
		<path class="st6" d="M340.4,125l1.2-0.1c0,0.3,0.1,0.5,0.3,0.7c0.2,0.2,0.4,0.2,0.6,0.2c0.3,0,0.5-0.1,0.6-0.3
			c0.2-0.2,0.3-0.5,0.3-0.8s-0.1-0.6-0.3-0.7s-0.4-0.3-0.6-0.3s-0.3,0-0.6,0.1l0.1-1c0.3,0,0.6-0.1,0.8-0.2c0.2-0.2,0.3-0.4,0.3-0.6
			s-0.1-0.4-0.2-0.5s-0.3-0.2-0.5-0.2s-0.4,0.1-0.5,0.2c-0.2,0.1-0.2,0.4-0.3,0.6l-1.1-0.2c0.1-0.4,0.2-0.7,0.4-0.9
			c0.2-0.2,0.4-0.4,0.7-0.5c0.3-0.1,0.6-0.2,1-0.2c0.6,0,1.1,0.2,1.5,0.6c0.3,0.3,0.5,0.7,0.5,1.1c0,0.6-0.3,1-0.9,1.4
			c0.4,0.1,0.7,0.3,0.9,0.5c0.2,0.3,0.3,0.6,0.3,1c0,0.6-0.2,1-0.6,1.4s-0.9,0.6-1.5,0.6s-1.1-0.2-1.5-0.5
			C340.7,125.9,340.5,125.5,340.4,125z"/>
	</g>
</g>
<path class="st8" d="M272.1,228.8h-97.8c-1.6,0-2.8-0.7-2.8-1.4v-42.3c0-0.9,1.3-1.4,2.8-1.4h97.8c1.6,0,2.8,0.7,2.8,1.4v42.3
	C274.9,228.2,273.6,228.8,272.1,228.8z"/>
<path class="st8" d="M273,295.3h-97.8c-1.6,0-2.8-0.8-2.8-1.8v-52.9c0-1.1,1.3-1.8,2.8-1.8H273c1.6,0,2.8,0.8,2.8,1.8v52.9
	C275.8,294.5,274.5,295.3,273,295.3z"/>
<path class="st9" d="M260.4,218.2H192v-13.1h68.4c0.9,0,1.7,0.8,1.7,1.7v9.7C262.1,217.5,261.3,218.2,260.4,218.2z"/>
<path class="st9" d="M260.9,273.1h-68.4V260h68.4c0.9,0,1.7,0.8,1.7,1.7v9.7C262.6,272.3,261.8,273.1,260.9,273.1z"/>
<path class="st9" d="M260.9,286.5h-68.4v-13.1h68.4c0.9,0,1.7,0.8,1.7,1.7v9.7C262.6,285.7,261.8,286.5,260.9,286.5z"/>
<path class="st4" d="M288.6,305.6h-125c-1.7,0-3-1.7-3-3.5V163.5c0-2.1,1.4-3.5,3-3.5h125c1.7,0,3,1.7,3,3.5V302
	C291.6,303.9,290.2,305.6,288.6,305.6z"/>
<g class="st10">
	<path class="st11" d="M188.8,198.4h-1.9l-0.8-2h-3.4l-0.7,2h-1.8l3.3-8.6h1.8L188.8,198.4z M185.6,195l-1.2-3.2l-1.2,3.2H185.6z"/>
</g>
<g>
	<g>
		<path class="st6" d="M206.2,175.1v-8.6h3.7c0.9,0,1.6,0.1,2,0.2c0.4,0.1,0.7,0.4,1,0.8c0.3,0.4,0.4,0.8,0.4,1.4s-0.2,1.2-0.6,1.6
			c-0.4,0.4-0.9,0.7-1.7,0.8c0.4,0.2,0.7,0.5,0.9,0.7s0.6,0.7,1,1.4l1,1.7h-2.1l-1.3-1.9c-0.4-0.7-0.8-1.1-0.9-1.3s-0.3-0.3-0.5-0.4
			c-0.2-0.1-0.5-0.1-0.9-0.1h-0.4v3.6L206.2,175.1L206.2,175.1z M207.9,170.2h1.3c0.8,0,1.4,0,1.6-0.1c0.2-0.1,0.4-0.2,0.5-0.4
			s0.2-0.4,0.2-0.6c0-0.3-0.1-0.5-0.2-0.7s-0.4-0.3-0.7-0.3c-0.1,0-0.6,0-1.3,0h-1.4L207.9,170.2L207.9,170.2z"/>
		<path class="st6" d="M214.8,166.5h3.2c0.7,0,1.3,0.1,1.6,0.2c0.5,0.1,0.9,0.4,1.3,0.8c0.4,0.4,0.6,0.8,0.8,1.4s0.3,1.2,0.3,2
			c0,0.7-0.1,1.3-0.3,1.8c-0.2,0.6-0.5,1.1-0.9,1.5c-0.3,0.3-0.7,0.5-1.2,0.7c-0.4,0.1-0.9,0.2-1.5,0.2h-3.3L214.8,166.5
			L214.8,166.5z M216.6,168v5.7h1.3c0.5,0,0.8,0,1-0.1c0.3-0.1,0.5-0.2,0.7-0.4s0.3-0.4,0.5-0.8c0.2-0.4,0.2-0.9,0.2-1.6
			c0-0.7-0.1-1.2-0.2-1.5s-0.3-0.6-0.5-0.8s-0.5-0.3-0.8-0.4c-0.2-0.1-0.7-0.1-1.4-0.1C217.4,168,216.6,168,216.6,168z"/>
		<path class="st6" d="M223.5,166.5h3.2c0.7,0,1.3,0.1,1.6,0.2c0.5,0.1,0.9,0.4,1.3,0.8c0.4,0.4,0.6,0.8,0.8,1.4s0.3,1.2,0.3,2
			c0,0.7-0.1,1.3-0.3,1.8c-0.2,0.6-0.5,1.1-0.9,1.5c-0.3,0.3-0.7,0.5-1.2,0.7c-0.4,0.1-0.9,0.2-1.5,0.2h-3.3L223.5,166.5
			L223.5,166.5z M225.2,168v5.7h1.3c0.5,0,0.8,0,1-0.1c0.3-0.1,0.5-0.2,0.7-0.4s0.3-0.4,0.5-0.8c0.2-0.4,0.2-0.9,0.2-1.6
			c0-0.7-0.1-1.2-0.2-1.5s-0.3-0.6-0.5-0.8s-0.5-0.3-0.8-0.4c-0.2-0.1-0.7-0.1-1.4-0.1C226,168,225.2,168,225.2,168z"/>
		<path class="st6" d="M232.5,170.5v-1.6h1.6v1.6H232.5z M232.5,175.1v-1.6h1.6v1.6H232.5z"/>
		<path class="st6" d="M238.8,175.1v-1.3l2.3-2.7c0.4-0.4,0.7-0.7,0.8-0.9c-0.2,0-0.4,0-0.8,0h-2.2v-1.4h5.1v1.2l-2.4,2.7l-0.8,0.9
			c0.5,0,0.7,0,0.8,0h2.5v1.4L238.8,175.1L238.8,175.1z"/>
	</g>
</g>
<rect x="178.9" y="205.1" class="st12" width="13.1" height="13.1"/>
<rect x="179.4" y="273.4" class="st12" width="13.1" height="13.1"/>
<rect x="179.4" y="260" class="st12" width="13.1" height="13.1"/>
<path class="st7" d="M187.1,280.8l1.3,0.4c-0.2,0.7-0.5,1.2-1,1.6c-0.4,0.3-1,0.5-1.7,0.5c-0.9,0-1.6-0.3-2.1-0.9
	c-0.6-0.6-0.8-1.4-0.8-2.4c0-1.1,0.3-1.9,0.8-2.5c0.6-0.6,1.3-0.9,2.2-0.9c0.8,0,1.4,0.2,1.9,0.7c0.3,0.3,0.5,0.7,0.7,1.2l-1.3,0.3
	c-0.1-0.3-0.2-0.6-0.5-0.8c-0.2-0.2-0.5-0.3-0.9-0.3c-0.5,0-0.9,0.2-1.2,0.5s-0.4,0.9-0.4,1.7c0,0.8,0.1,1.4,0.4,1.7
	s0.7,0.5,1.1,0.5c0.3,0,0.6-0.1,0.9-0.3C186.8,281.6,187,281.3,187.1,280.8z"/>
<path class="st7" d="M183.1,263.7h2.6c0.5,0,0.9,0,1.1,0.1c0.2,0,0.5,0.1,0.7,0.3c0.2,0.1,0.4,0.3,0.5,0.5s0.2,0.5,0.2,0.8
	s-0.1,0.6-0.2,0.8c-0.2,0.3-0.4,0.4-0.7,0.6c0.4,0.1,0.7,0.3,0.9,0.6c0.2,0.3,0.3,0.6,0.3,1c0,0.3-0.1,0.6-0.2,0.9
	c-0.1,0.3-0.3,0.5-0.6,0.7c-0.2,0.2-0.5,0.3-0.9,0.3c-0.2,0-0.7,0-1.6,0H183v-6.6C183,263.7,183.1,263.7,183.1,263.7z M184.4,264.7
	v1.5h0.9c0.5,0,0.8,0,0.9,0c0.2,0,0.4-0.1,0.5-0.2s0.2-0.3,0.2-0.5s-0.1-0.4-0.2-0.5s-0.3-0.2-0.5-0.2c-0.1,0-0.5,0-1.1,0
	L184.4,264.7L184.4,264.7L184.4,264.7z M184.4,267.3v1.7h1.2c0.5,0,0.8,0,0.9,0c0.2,0,0.4-0.1,0.5-0.3c0.1-0.1,0.2-0.3,0.2-0.5
	s0-0.4-0.1-0.5s-0.2-0.2-0.4-0.3s-0.6-0.1-1.2-0.1L184.4,267.3L184.4,267.3z"/>
<path class="st7" d="M188.3,214.9h-1.4l-0.6-1.5h-2.6l-0.5,1.5h-1.4l2.5-6.4h1.4L188.3,214.9z M185.9,212.4L185,210l-0.9,2.4H185.9z
	"/>
<g>
	<path class="st11" d="M180.9,245.8h3.4c0.7,0,1.2,0,1.5,0.1s0.6,0.2,0.9,0.4s0.5,0.4,0.7,0.7s0.3,0.6,0.3,1s-0.1,0.8-0.3,1.1
		s-0.5,0.6-0.9,0.8c0.5,0.2,0.9,0.4,1.2,0.8s0.4,0.8,0.4,1.3c0,0.4-0.1,0.8-0.3,1.1s-0.4,0.7-0.7,0.9s-0.7,0.4-1.2,0.4
		c-0.3,0-1,0.1-2.1,0.1h-2.9L180.9,245.8L180.9,245.8z M182.6,247.2v2h1.1c0.7,0,1.1,0,1.3,0c0.3,0,0.5-0.1,0.7-0.3s0.3-0.4,0.3-0.7
		s-0.1-0.5-0.2-0.6s-0.4-0.3-0.7-0.3c-0.2,0-0.7,0-1.5,0L182.6,247.2L182.6,247.2z M182.6,250.6v2.3h1.6c0.6,0,1,0,1.2-0.1
		c0.3,0,0.5-0.2,0.6-0.3s0.2-0.4,0.2-0.7s-0.1-0.5-0.2-0.7s-0.3-0.3-0.5-0.4s-0.7-0.1-1.5-0.1H182.6z"/>
</g>
<g>
	<g>
		<path class="st6" d="M203.8,269.9h-1.2v-4.7c-0.5,0.4-1,0.7-1.6,0.9V265c0.3-0.1,0.7-0.3,1-0.6c0.4-0.3,0.6-0.6,0.8-1h1V269.9z"/>
		<path class="st6" d="M204.8,282.5v1.1h-4.3c0-0.4,0.2-0.8,0.4-1.2c0.2-0.4,0.7-0.9,1.4-1.5c0.6-0.5,0.9-0.9,1-1.1
			c0.2-0.3,0.3-0.5,0.3-0.8s-0.1-0.5-0.2-0.6c-0.1-0.1-0.4-0.2-0.6-0.2c-0.3,0-0.5,0.1-0.6,0.2s-0.2,0.4-0.3,0.8l-1.2-0.1
			c0.1-0.7,0.3-1.2,0.7-1.5s0.9-0.4,1.5-0.4s1.1,0.2,1.5,0.5s0.5,0.8,0.5,1.3c0,0.3-0.1,0.6-0.2,0.8c-0.1,0.3-0.3,0.5-0.5,0.8
			c-0.1,0.2-0.4,0.5-0.8,0.8s-0.6,0.6-0.7,0.7c-0.1,0.1-0.2,0.2-0.3,0.3h2.4V282.5z"/>
	</g>
</g>
<g>
	<g>
		<path class="st6" d="M203.1,208.4c0.6,0,1.1,0.2,1.5,0.7s0.6,1.4,0.6,2.6c0,1.2-0.2,2.1-0.6,2.6c-0.3,0.4-0.8,0.7-1.5,0.7
			c-0.6,0-1.1-0.2-1.5-0.7s-0.6-1.3-0.6-2.6c0-1.2,0.2-2.1,0.6-2.6C202,208.6,202.5,208.4,203.1,208.4z M203.1,209.5
			c-0.1,0-0.3,0-0.4,0.1c-0.1,0.1-0.2,0.3-0.3,0.5c-0.1,0.3-0.1,0.9-0.1,1.6s0,1.3,0.1,1.6s0.2,0.5,0.3,0.6s0.2,0.1,0.4,0.1
			s0.3,0,0.4-0.1c0.1-0.1,0.2-0.3,0.3-0.5c0.1-0.3,0.1-0.9,0.1-1.6s0-1.3-0.1-1.6s-0.2-0.5-0.3-0.6S203.2,209.5,203.1,209.5z"/>
	</g>
</g>
<path class="st8" d="M271.2,392.1h-97.8c-1.6,0-2.8-0.7-2.8-1.4v-42.3c0-0.9,1.3-1.4,2.8-1.4h97.8c1.6,0,2.8,0.7,2.8,1.4v42.3
	C274,391.5,272.7,392.1,271.2,392.1z"/>
<path class="st8" d="M272.1,458.6h-97.8c-1.6,0-2.8-0.8-2.8-1.8v-52.9c0-1.1,1.3-1.8,2.8-1.8h97.8c1.6,0,2.8,0.8,2.8,1.8v52.9
	C274.9,457.8,273.6,458.6,272.1,458.6z"/>
<path class="st9" d="M259.5,381.5h-68.4v-13.1h68.4c0.9,0,1.7,0.8,1.7,1.7v9.7C261.2,380.8,260.5,381.5,259.5,381.5z"/>
<path class="st9" d="M260,436.4h-68.4v-13.1H260c0.9,0,1.7,0.8,1.7,1.7v9.7C261.7,435.6,260.9,436.4,260,436.4z"/>
<path class="st9" d="M260,449.8h-68.4v-13.1H260c0.9,0,1.7,0.8,1.7,1.7v9.7C261.7,449,260.9,449.8,260,449.8z"/>
<path class="st4" d="M287.7,468.9h-125c-1.7,0-3-1.7-3-3.5V326.8c0-2.1,1.4-3.5,3-3.5h125c1.7,0,3,1.7,3,3.5v138.5
	C290.7,467.2,289.3,468.9,287.7,468.9z"/>
<g class="st10">
	<path class="st11" d="M187.9,361.7H186l-0.8-2h-3.4l-0.7,2h-1.8l3.3-8.6h1.8L187.9,361.7z M184.7,358.3l-1.2-3.2l-1.2,3.2H184.7z"
		/>
</g>
<g>
	<g>
		<path class="st6" d="M205.3,338.4v-8.6h3.7c0.9,0,1.6,0.1,2,0.2s0.7,0.4,1,0.8s0.4,0.8,0.4,1.4s-0.2,1.2-0.6,1.6s-0.9,0.7-1.7,0.8
			c0.4,0.2,0.7,0.5,0.9,0.7s0.6,0.7,1,1.4l1,1.7h-2.1l-1.3-1.9c-0.4-0.7-0.8-1.1-0.9-1.3c-0.1-0.2-0.3-0.3-0.5-0.4s-0.5-0.1-0.9-0.1
			h-0.4v3.6L205.3,338.4L205.3,338.4z M207,333.5h1.3c0.8,0,1.4,0,1.6-0.1s0.4-0.2,0.5-0.4c0.1-0.2,0.2-0.4,0.2-0.6
			c0-0.3-0.1-0.5-0.2-0.7c-0.1-0.2-0.4-0.3-0.7-0.3c-0.1,0-0.6,0-1.3,0H207V333.5L207,333.5z"/>
		<path class="st6" d="M213.9,329.8h3.2c0.7,0,1.3,0.1,1.6,0.2c0.5,0.1,0.9,0.4,1.3,0.8s0.6,0.8,0.8,1.4s0.3,1.2,0.3,2
			c0,0.7-0.1,1.3-0.3,1.8c-0.2,0.6-0.5,1.1-0.9,1.5c-0.3,0.3-0.7,0.5-1.2,0.7c-0.4,0.1-0.9,0.2-1.5,0.2h-3.3L213.9,329.8
			L213.9,329.8z M215.7,331.3v5.7h1.3c0.5,0,0.8,0,1-0.1c0.3-0.1,0.5-0.2,0.7-0.4c0.2-0.2,0.3-0.4,0.5-0.8s0.2-0.9,0.2-1.6
			s-0.1-1.2-0.2-1.5c-0.1-0.3-0.3-0.6-0.5-0.8s-0.5-0.3-0.8-0.4c-0.2-0.1-0.7-0.1-1.4-0.1C216.5,331.3,215.7,331.3,215.7,331.3z"/>
		<path class="st6" d="M222.6,329.8h3.2c0.7,0,1.3,0.1,1.6,0.2c0.5,0.1,0.9,0.4,1.3,0.8s0.6,0.8,0.8,1.4s0.3,1.2,0.3,2
			c0,0.7-0.1,1.3-0.3,1.8c-0.2,0.6-0.5,1.1-0.9,1.5c-0.3,0.3-0.7,0.5-1.2,0.7c-0.4,0.1-0.9,0.2-1.5,0.2h-3.3L222.6,329.8
			L222.6,329.8z M224.3,331.3v5.7h1.3c0.5,0,0.8,0,1-0.1c0.3-0.1,0.5-0.2,0.7-0.4c0.2-0.2,0.3-0.4,0.5-0.8s0.2-0.9,0.2-1.6
			s-0.1-1.2-0.2-1.5c-0.1-0.3-0.3-0.6-0.5-0.8s-0.5-0.3-0.8-0.4c-0.2-0.1-0.7-0.1-1.4-0.1C225.1,331.3,224.3,331.3,224.3,331.3z"/>
		<path class="st6" d="M231.6,333.8v-1.6h1.6v1.6H231.6z M231.6,338.4v-1.6h1.6v1.6H231.6z"/>
		<path class="st6" d="M237.9,338.4v-1.3l2.3-2.7c0.4-0.4,0.7-0.7,0.8-0.9c-0.2,0-0.4,0-0.8,0H238v-1.4h5.1v1.2l-2.4,2.7l-0.8,0.9
			c0.5,0,0.7,0,0.8,0h2.5v1.4L237.9,338.4L237.9,338.4z"/>
	</g>
</g>
<rect x="178" y="368.4" class="st12" width="13.1" height="13.1"/>
<rect x="178.5" y="436.7" class="st12" width="13.1" height="13.1"/>
<rect x="178.5" y="423.3" class="st12" width="13.1" height="13.1"/>
<path class="st7" d="M186.2,444.1l1.3,0.4c-0.2,0.7-0.5,1.2-1,1.6c-0.4,0.3-1,0.5-1.7,0.5c-0.9,0-1.6-0.3-2.1-0.9
	c-0.6-0.6-0.8-1.4-0.8-2.4c0-1.1,0.3-1.9,0.8-2.5c0.6-0.6,1.3-0.9,2.2-0.9c0.8,0,1.4,0.2,1.9,0.7c0.3,0.3,0.5,0.7,0.7,1.2l-1.3,0.3
	c-0.1-0.3-0.2-0.6-0.5-0.8c-0.2-0.2-0.5-0.3-0.9-0.3c-0.5,0-0.9,0.2-1.2,0.5s-0.4,0.9-0.4,1.7c0,0.8,0.1,1.4,0.4,1.7
	s0.7,0.5,1.1,0.5c0.3,0,0.6-0.1,0.9-0.3C185.9,444.9,186.1,444.6,186.2,444.1z"/>
<path class="st7" d="M182.2,427h2.6c0.5,0,0.9,0,1.1,0.1c0.2,0,0.5,0.1,0.7,0.3c0.2,0.1,0.4,0.3,0.5,0.5s0.2,0.5,0.2,0.8
	s-0.1,0.6-0.2,0.8c-0.2,0.3-0.4,0.4-0.7,0.6c0.4,0.1,0.7,0.3,0.9,0.6s0.3,0.6,0.3,1c0,0.3-0.1,0.6-0.2,0.9c-0.1,0.3-0.3,0.5-0.6,0.7
	c-0.2,0.2-0.5,0.3-0.9,0.3c-0.2,0-0.7,0-1.6,0h-2.2L182.2,427L182.2,427z M183.5,428v1.5h0.9c0.5,0,0.8,0,0.9,0
	c0.2,0,0.4-0.1,0.5-0.2s0.2-0.3,0.2-0.5s-0.1-0.4-0.2-0.5s-0.3-0.2-0.5-0.2c-0.1,0-0.5,0-1.1,0L183.5,428L183.5,428L183.5,428z
	 M183.5,430.6v1.7h1.2c0.5,0,0.8,0,0.9,0c0.2,0,0.4-0.1,0.5-0.3c0.1-0.1,0.2-0.3,0.2-0.5s0-0.4-0.1-0.5s-0.2-0.2-0.4-0.3
	s-0.6-0.1-1.2-0.1L183.5,430.6L183.5,430.6z"/>
<path class="st7" d="M187.4,378.2H186l-0.6-1.5h-2.6l-0.5,1.5h-1.4l2.5-6.4h1.4L187.4,378.2z M185,375.7l-0.9-2.4l-0.9,2.4H185z"/>
<g>
	<path class="st11" d="M180,409.1h3.4c0.7,0,1.2,0,1.5,0.1s0.6,0.2,0.9,0.4s0.5,0.4,0.7,0.7s0.3,0.6,0.3,1s-0.1,0.8-0.3,1.1
		s-0.5,0.6-0.9,0.8c0.5,0.2,0.9,0.4,1.2,0.8s0.4,0.8,0.4,1.3c0,0.4-0.1,0.8-0.3,1.1s-0.4,0.7-0.7,0.9s-0.7,0.4-1.2,0.4
		c-0.3,0-1,0.1-2.1,0.1H180V409.1z M181.8,410.5v2h1.1c0.7,0,1.1,0,1.3,0c0.3,0,0.5-0.1,0.7-0.3s0.3-0.4,0.3-0.7
		c0-0.3-0.1-0.5-0.2-0.6s-0.4-0.3-0.7-0.3c-0.2,0-0.7,0-1.5,0h-1V410.5z M181.8,414v2.3h1.6c0.6,0,1,0,1.2-0.1
		c0.3,0,0.5-0.2,0.6-0.3s0.2-0.4,0.2-0.7c0-0.3-0.1-0.5-0.2-0.7s-0.3-0.3-0.5-0.4s-0.7-0.1-1.5-0.1L181.8,414L181.8,414z"/>
</g>
<g>
	<g>
		<path class="st6" d="M202.9,433.2h-1.2v-4.7c-0.5,0.4-1,0.7-1.6,0.9v-1.1c0.3-0.1,0.7-0.3,1-0.6c0.4-0.3,0.6-0.6,0.8-1h1V433.2z"
			/>
	</g>
</g>
<g>
	<g>
		<path class="st6" d="M202.2,371.7c0.6,0,1.1,0.2,1.5,0.7s0.6,1.4,0.6,2.6s-0.2,2.1-0.6,2.6c-0.3,0.4-0.8,0.7-1.5,0.7
			c-0.6,0-1.1-0.2-1.5-0.7s-0.6-1.3-0.6-2.6c0-1.2,0.2-2.1,0.6-2.6C201.1,372,201.6,371.7,202.2,371.7z M202.2,372.8
			c-0.1,0-0.3,0-0.4,0.1c-0.1,0.1-0.2,0.3-0.3,0.5c-0.1,0.3-0.1,0.9-0.1,1.6s0,1.3,0.1,1.6c0.1,0.3,0.2,0.5,0.3,0.6s0.2,0.1,0.4,0.1
			s0.3,0,0.4-0.1c0.1-0.1,0.2-0.3,0.3-0.5c0.1-0.3,0.1-0.9,0.1-1.6s0-1.3-0.1-1.6c-0.1-0.3-0.2-0.5-0.3-0.6
			C202.5,372.8,202.3,372.8,202.2,372.8z"/>
	</g>
</g>
<g>
	<path class="st6" d="M200,444.7l1.2-0.1c0,0.3,0.1,0.5,0.3,0.7s0.4,0.2,0.6,0.2c0.3,0,0.5-0.1,0.6-0.3c0.2-0.2,0.3-0.5,0.3-0.8
		s-0.1-0.6-0.3-0.7s-0.4-0.3-0.6-0.3c-0.2,0-0.3,0-0.6,0.1l0.1-1c0.3,0,0.6-0.1,0.8-0.2c0.2-0.2,0.3-0.4,0.3-0.6s-0.1-0.4-0.2-0.5
		c-0.1-0.1-0.3-0.2-0.5-0.2s-0.4,0.1-0.5,0.2c-0.2,0.1-0.2,0.4-0.3,0.6l-1.1-0.2c0.1-0.4,0.2-0.7,0.4-0.9c0.2-0.2,0.4-0.4,0.7-0.5
		s0.6-0.2,1-0.2c0.6,0,1.1,0.2,1.5,0.6c0.3,0.3,0.5,0.7,0.5,1.1c0,0.6-0.3,1-0.9,1.4c0.4,0.1,0.7,0.3,0.9,0.5c0.2,0.3,0.3,0.6,0.3,1
		c0,0.6-0.2,1-0.6,1.4c-0.4,0.4-0.9,0.6-1.5,0.6s-1.1-0.2-1.5-0.5C200.3,445.7,200.1,445.2,200,444.7z"/>
</g>
</svg>
