<?xml version="1.0" encoding="utf-8"?>
<!-- Generator: Adobe Illustrator 25.2.1, SVG Export Plug-In . SVG Version: 6.00 Build 0)  -->
<svg version="1.1" id="Слой_1" xmlns="http://www.w3.org/2000/svg" xmlns:xlink="http://www.w3.org/1999/xlink" x="0px" y="0px"
	 viewBox="0 0 754.5 150.4" style="enable-background:new 0 0 754.5 150.4;" xml:space="preserve">
<style type="text/css">
	.st0{fill:none;stroke:#CCCCCC;stroke-linecap:round;}
	.st1{fill:#1D3550;}
	.st2{font-family:'Arial-BoldMT';}
	.st3{font-size:16.8749px;}
	.st4{fill:#76CDD8;}
	.st5{enable-background:new    ;}
	.st6{font-family:'ArialMT';}
	.st7{font-size:12px;}
	.st8{fill:#CEDB56;}
	.st9{fill:#263852;}
</style>
<polyline class="st0" points="739.9,95.2 739.9,59.3 9.1,59.3 9.1,95.2 "/>
<g>
	<text transform="matrix(1 0 0 1 344.4603 23.7408)"><tspan x="0" y="0" class="st1 st2 st3">Amazon</tspan><tspan x="14.1" y="20.2" class="st4 st2 st3">EMR</tspan></text>
</g>
<g>
	<text transform="matrix(1 0 0 1 113.4285 116.9597)" class="st5"><tspan x="0" y="0" class="st1 st6 st7">Hadoop Distributed</tspan><tspan x="18" y="14.4" class="st8 st2 st7">File System</tspan></text>
	<text transform="matrix(1 0 0 1 250.337 116.8273)" class="st5"><tspan x="0" y="0" class="st1 st6 st7">Amazon</tspan><tspan x="-12" y="14.4" class="st8 st2 st7">Dynamo DB</tspan></text>
	<text transform="matrix(1 0 0 1 357.8925 116.9602)" class="st5"><tspan x="0" y="0" class="st9 st6 st7">Amazon</tspan><tspan x="-2" y="14.4" class="st8 st2 st7">Redshift</tspan></text>
	<text transform="matrix(1 0 0 1 34.4465 116.828)" class="st5"><tspan x="0" y="0" class="st9 st6 st7">Amazon</tspan><tspan x="14.7" y="14.4" class="st8 st2 st7">S3</tspan></text>
	<text transform="matrix(1 0 0 1 465.4481 116.8279)" class="st5"><tspan x="0" y="0" class="st9 st6 st7">Amazon</tspan><tspan x="1.7" y="14.4" class="st8 st2 st7">Glacier</tspan></text>
	<text transform="matrix(1 0 0 1 576.801 116.828)" class="st5"><tspan x="0" y="0" class="st9 st6 st7">Amazon</tspan><tspan x="-17" y="14.4" class="st8 st2 st7">Web Services</tspan></text>
	<g>
		<g>
			<path class="st9" d="M690.2,117.3h-2.3v5.1H685v-13.8h5.1c1.6,0,2.9,0.4,3.8,1.1c0.9,0.7,1.3,1.8,1.3,3.1c0,0.9-0.2,1.7-0.6,2.4
				c-0.4,0.6-1,1.1-1.9,1.5l3,5.7v0.1h-2.9L690.2,117.3z M688,115h2.3c0.7,0,1.3-0.2,1.7-0.5c0.4-0.4,0.6-0.9,0.6-1.5
				c0-0.7-0.2-1.2-0.6-1.5c-0.4-0.4-0.9-0.6-1.7-0.6H688V115z"/>
			<path class="st9" d="M697.5,122.4v-13.8h4.3c1.2,0,2.3,0.3,3.3,0.8s1.7,1.3,2.2,2.3s0.8,2.2,0.8,3.4v0.6c0,1.3-0.3,2.4-0.8,3.4
				s-1.3,1.8-2.2,2.3c-1,0.6-2.1,0.8-3.3,0.8h-4.3V122.4z M700.4,110.8v9.2h1.4c1.1,0,2-0.4,2.6-1.1s0.9-1.8,0.9-3.1v-0.7
				c0-1.4-0.3-2.5-0.9-3.2c-0.6-0.7-1.4-1.1-2.6-1.1L700.4,110.8L700.4,110.8z"/>
			<path class="st9" d="M717.4,118.7c0-0.5-0.2-1-0.6-1.2c-0.4-0.3-1.1-0.6-2.1-0.9c-1-0.3-1.8-0.6-2.3-0.9c-1.6-0.8-2.4-2-2.4-3.4
				c0-0.7,0.2-1.4,0.6-2c0.4-0.6,1-1,1.8-1.4c0.8-0.3,1.7-0.5,2.7-0.5s1.9,0.2,2.6,0.5c0.8,0.4,1.4,0.9,1.8,1.5
				c0.4,0.7,0.6,1.4,0.6,2.2h-2.9c0-0.6-0.2-1.1-0.6-1.5c-0.4-0.4-1-0.5-1.7-0.5s-1.2,0.1-1.6,0.4c-0.4,0.3-0.6,0.7-0.6,1.2
				s0.2,0.8,0.7,1.1s1.1,0.6,2,0.9c1.6,0.5,2.8,1.1,3.5,1.8s1.1,1.6,1.1,2.7c0,1.2-0.5,2.1-1.4,2.8s-2.1,1-3.7,1
				c-1.1,0-2-0.2-2.9-0.6c-0.9-0.4-1.5-0.9-2-1.6c-0.5-0.7-0.7-1.5-0.7-2.4h2.9c0,1.5,0.9,2.3,2.7,2.3c0.7,0,1.2-0.1,1.6-0.4
				C717.2,119.6,717.4,119.2,717.4,118.7z"/>
		</g>
	</g>
	<circle class="st8" cx="57.2" cy="94.4" r="3.8"/>
	<circle class="st8" cx="164.8" cy="94.4" r="3.8"/>
	<circle class="st8" cx="272.3" cy="94.4" r="3.8"/>
	<circle class="st8" cx="379.9" cy="94.4" r="3.8"/>
	<circle class="st8" cx="487.5" cy="94.4" r="3.8"/>
	<circle class="st8" cx="595" cy="94.4" r="3.8"/>
	<circle class="st8" cx="702.6" cy="94.4" r="3.8"/>
</g>
</svg>
