<?xml version="1.0" encoding="UTF-8"?>
<!-- Generator: visioncortex VTracer -->
<svg id="svg" version="1.1" xmlns="http://www.w3.org/2000/svg" style="display: block;" viewBox="0 0 1920 1080"><path d="M0 0 C20.13 0 40.26 0 61 0 C61 45.54 61 91.08 61 138 C100.27 138 139.54 138 180 138 C180 92.46 180 46.92 180 0 C200.13 0 220.26 0 241 0 C241 45.54 241 91.08 241 138 C260.47 138 279.94 138 300 138 C299.95359375 131.65394531 299.9071875 125.30789063 299.859375 118.76953125 C299.83891483 114.72719698 299.81965751 110.68492738 299.8046875 106.64257812 C299.78086076 100.23920277 299.75280337 93.83605819 299.69824219 87.43286133 C299.65448859 82.26514357 299.63080102 77.09767361 299.62049103 71.92978477 C299.6131523 69.96719149 299.59882281 68.00461036 299.57707977 66.04212379 C299.38521575 47.99194876 302.03332359 31.77289958 314.8984375 17.97265625 C329.00607666 4.73035555 342.90590414 -0.30381199 361.9206543 -0.29052734 C363.31944637 -0.29652069 364.71823514 -0.30332808 366.11701965 -0.31088257 C369.89830782 -0.3284707 373.67950533 -0.33323498 377.46083045 -0.33451414 C379.82957179 -0.33594072 382.19829046 -0.34021995 384.56702614 -0.34550858 C392.84897944 -0.36398719 401.13086857 -0.37218217 409.4128418 -0.37060547 C417.10295559 -0.36940562 424.79278803 -0.39048261 432.4828307 -0.4220928 C439.10905597 -0.44834833 445.73518989 -0.45896885 452.36146671 -0.45769465 C456.30835145 -0.45718761 460.25498607 -0.4627264 464.20181847 -0.48405075 C467.9194142 -0.50358973 471.63652527 -0.50345243 475.35413933 -0.48901749 C477.34710957 -0.48597021 479.34008069 -0.50249674 481.33297729 -0.51989746 C498.0103521 -0.40502707 511.93019856 5.55931983 523.8125 17.1875 C539.36524318 33.14874516 541.6426629 51.08143927 541.390625 72.375 C541.38472382 74.06640085 541.3806555 75.75780909 541.37841797 77.44921875 C541.35767856 83.63292588 541.30183518 89.81647535 541.25 96 C541.1675 109.86 541.085 123.72 541 138 C597.1 138 653.2 138 711 138 C711.66 136.02 712.32 134.04 713 132 C713.57266357 130.69639523 714.1745379 129.40500322 714.8125 128.13208008 C715.16080872 127.4324263 715.50911743 126.73277252 715.86798096 126.01191711 C716.42833038 124.90193611 716.42833038 124.90193611 717 123.76953125 C717.39209656 122.98543381 717.78419312 122.20133636 718.18817139 121.39347839 C719.45458453 118.86435553 720.72703876 116.33833254 722 113.8125 C722.87155158 112.07623828 723.74297064 110.33991004 724.61425781 108.60351562 C729.25189763 99.37558551 733.90640831 90.15724998 738.79296875 81.05786133 C742.34692628 74.43654113 745.63122991 67.73754019 749 61 C675.74 60.505 675.74 60.505 601 60 C601 40.2 601 20.4 601 0 C680.53 0 760.06 0 842 0 C831.53583196 22.09102142 831.53583196 22.09102142 828.0625 29 C827.53366211 30.06347656 827.53366211 30.06347656 826.99414062 31.1484375 C824.61317788 35.90225068 822.15213346 40.61033917 819.6625824 45.30786133 C813.41267027 57.10922342 807.43870627 69.03963912 801.5 81 C795.64540497 92.79096359 789.78711139 104.57112927 783.58557129 116.18457031 C779.92132572 123.06447623 776.49148935 130.01702129 773 137 C815.24 137.33 857.48 137.66 901 138 C900.84201344 108.96627969 900.84201344 108.96627969 900.63964844 79.93286133 C900.62158203 74.27868652 900.62158203 74.27868652 900.6182251 71.61991882 C900.61213933 69.78878373 900.59819028 67.95766323 900.57769775 66.12663269 C900.38568247 48.04368031 903.0064255 31.80175282 915.8984375 17.97265625 C928.87956249 5.78777127 942.47427469 -0.30629838 960.16674805 -0.29052734 C961.2589415 -0.29724457 962.35113495 -0.30396179 963.47642517 -0.31088257 C967.07156989 -0.32981202 970.66652736 -0.33378446 974.26171875 -0.3359375 C976.77505061 -0.34236966 979.28838173 -0.34909833 981.80171204 -0.35610962 C987.06630659 -0.36807029 992.3308541 -0.37187775 997.59545898 -0.37060547 C1003.64965746 -0.36940634 1009.70349814 -0.39047219 1015.75760621 -0.4220928 C1021.61488018 -0.45157702 1027.47201464 -0.45857664 1033.32935524 -0.45738602 C1035.80548372 -0.45973428 1038.28161531 -0.46851373 1040.75769615 -0.48405075 C1062.1446878 -0.60567165 1078.83861196 1.56675275 1094.8125 17.1875 C1107.2166159 29.83583446 1112.19535774 44.07944323 1112.11352539 61.59741211 C1112.11367142 62.42748779 1112.11381744 63.25756348 1112.1139679 64.11279297 C1112.11327574 66.83433723 1112.1055162 69.55581156 1112.09765625 72.27734375 C1112.09578959 74.17305972 1112.09436686 76.06877617 1112.09336853 77.9644928 C1112.08956287 82.93748319 1112.07974935 87.91044407 1112.06866455 92.88342285 C1112.05660298 98.85903565 1112.0520389 104.83465835 1112.04621124 110.81027985 C1112.03653647 119.87354039 1112.01736627 128.93673624 1112 138 C1131.47 138 1150.94 138 1171 138 C1171 92.46 1171 46.92 1171 0 C1191.13 0 1211.26 0 1232 0 C1238.25429302 11.88315675 1244.43888845 23.76066026 1250.38623047 35.79296875 C1254.07608839 43.24951451 1257.85268666 50.64951594 1261.75 58 C1268.0402231 69.87683102 1273.99164352 81.92031698 1279.96826172 93.95703125 C1286.17237542 106.44381791 1292.47590364 118.863505 1299.03747559 131.16674805 C1300.0512453 133.09760329 1301.02471224 135.04942449 1302 137 C1314.87 137.33 1327.74 137.66 1341 138 C1341.66 136.02 1342.32 134.04 1343 132 C1343.93212083 129.96846754 1344.90343747 127.95461489 1345.90625 125.95703125 C1346.48632812 124.79880859 1347.06640625 123.64058594 1347.6640625 122.44726562 C1348.11894043 121.54681519 1348.11894043 121.54681519 1348.58300781 120.62817383 C1349.47380811 118.86436078 1350.35809863 117.09726473 1351.2421875 115.33007812 C1354.66678475 108.51453141 1358.17892129 101.75157818 1361.75 95.01171875 C1367.52262594 84.10211321 1373.01116044 73.05434399 1378.5 62 C1383.93569015 51.05269719 1389.37291288 40.11418563 1395.09375 29.3125 C1400.20312046 19.61445926 1405.09780334 9.80439333 1410 0 C1430.46 0 1450.92 0 1472 0 C1472 45.54 1472 91.08 1472 138 C1491.8 138 1511.6 138 1532 138 C1532 92.46 1532 46.92 1532 0 C1611.53 0 1691.06 0 1773 0 C1773 19.8 1773 39.6 1773 60 C1713.6 60 1654.2 60 1593 60 C1593 85.74 1593 111.48 1593 138 C1664.28 138 1735.56 138 1809 138 C1809 182.55 1809 227.1 1809 273 C1737.72 273 1666.44 273 1593 273 C1593 299.73 1593 326.46 1593 354 C1652.4 354 1711.8 354 1773 354 C1773 373.8 1773 393.6 1773 414 C1693.47 414 1613.94 414 1532 414 C1532 367.47 1532 320.94 1532 273 C1512.2 273 1492.4 273 1472 273 C1472 319.53 1472 366.06 1472 414 C1451.87 414 1431.74 414 1411 414 C1411 367.47 1411 320.94 1411 273 C1351.93 273 1292.86 273 1232 273 C1232 319.53 1232 366.06 1232 414 C1211.87 414 1191.74 414 1171 414 C1171 367.47 1171 320.94 1171 273 C1151.53 273 1132.06 273 1112 273 C1112.03480469 279.19007813 1112.06960938 285.38015625 1112.10546875 291.7578125 C1112.12081665 295.70443665 1112.13525989 299.65102345 1112.14648438 303.59765625 C1112.16434355 309.84724675 1112.18535707 316.09670405 1112.22631836 322.34619141 C1112.25917092 327.39070968 1112.27690706 332.4350849 1112.28463173 337.479702 C1112.29012913 339.39400353 1112.30086267 341.3082982 1112.31719017 343.22253799 C1112.48327622 363.52159968 1109.90150413 381.55732033 1095.40039062 396.86572266 C1085.44580731 406.7899977 1072.47767214 414.07247029 1058.1583252 414.14717102 C1057.21102539 414.15432632 1056.26372559 414.16148163 1055.28771973 414.16885376 C1054.2601355 414.17154266 1053.23255127 414.17423157 1052.17382812 414.17700195 C1051.08207275 414.18357315 1049.99031738 414.19014435 1048.86547852 414.19691467 C1045.25406826 414.21661558 1041.64269959 414.22830508 1038.03125 414.23828125 C1036.17589882 414.24439454 1036.17589882 414.24439454 1034.2830658 414.25063133 C1028.4070938 414.26933376 1022.53113492 414.28389997 1016.6551404 414.2922433 C1009.90409141 414.30199066 1003.15337247 414.32824961 996.40243959 414.36874419 C990.53077334 414.40273784 984.65921605 414.41440437 978.78746033 414.41844749 C976.30295071 414.42329834 973.81844424 414.43486905 971.33399963 414.45348549 C946.45953455 414.62824461 946.45953455 414.62824461 936 410 C935.23119507 409.67876663 934.46239014 409.35753326 933.67028809 409.02656555 C918.97873817 402.60712592 908.85604435 389.50222617 903 375 C894.7522037 342.0088148 901 307.00653532 901 273 C835.66 273 770.32 273 703 273 C702.34 274.98 701.68 276.96 701 279 C700.33545082 280.4620062 699.63602887 281.90875637 698.8996582 283.3359375 C698.48774734 284.1395874 698.07583649 284.9432373 697.65144348 285.77124023 C697.20572495 286.63048096 696.76000641 287.48972168 696.30078125 288.375 C695.82867722 289.29418213 695.35657318 290.21336426 694.87016296 291.16040039 C693.35494883 294.10901583 691.83408534 297.05466801 690.3125 300 C681.06867057 317.93275163 672.02367232 335.95265535 663 354 C722.07 354 781.14 354 842 354 C842 373.8 842 393.6 842 414 C762.47 414 682.94 414 601 414 C601 352 601 352 613 329 C616.80834454 321.42453793 620.60530964 313.84460464 624.375 306.25 C626.25537497 302.46232345 628.13861196 298.67608845 630.0234375 294.890625 C630.43604828 294.0571051 630.84865906 293.22358521 631.27377319 292.36480713 C634.37038229 286.14609796 637.66658621 280.11125861 641 274 C608 273.67 575 273.34 541 273 C541 319.53 541 366.06 541 414 C520.87 414 500.74 414 480 414 C480 367.47 480 320.94 480 273 C440.73 273 401.46 273 361 273 C361 319.53 361 366.06 361 414 C340.87 414 320.74 414 300 414 C300 367.47 300 320.94 300 273 C274.26 273 248.52 273 222 273 C221.34 274.98 220.68 276.96 220 279 C218.84714814 281.47762931 217.6694693 283.91834232 216.4375 286.35546875 C216.08671387 287.05658279 215.73592773 287.75769684 215.37451172 288.48005676 C214.62998874 289.96609033 213.88352862 291.45115476 213.13525391 292.93530273 C212.02711825 295.1337009 210.92511103 297.33507675 209.82421875 299.53710938 C206.00820755 307.14963407 202.11220096 314.71402664 198.125 322.23828125 C192.56723929 332.73479531 187.28025413 343.36189529 182 354 C175.16883425 367.76271951 168.19763683 381.42471027 161 395 C157.7 401.27 154.4 407.54 151 414 C130.54 414 110.08 414 89 414 C64.90237414 366.96607965 64.90237414 366.96607965 54.11376953 345.19042969 C48.90048735 334.69795463 43.46182309 324.37746388 38 314 C28.1 294.2 28.1 294.2 18 274 C-13.68 273.67 -45.36 273.34 -78 273 C-78 228.45 -78 183.9 -78 138 C-52.26 138 -26.52 138 0 138 C0 92.46 0 46.92 0 0 Z M361 60 C361 85.74 361 111.48 361 138 C400.27 138 439.54 138 480 138 C480 112.26 480 86.52 480 60 C440.73 60 401.46 60 361 60 Z M962 60 C962 85.74 962 111.48 962 138 C991.37 138 1020.74 138 1051 138 C1051 112.26 1051 86.52 1051 60 C1021.63 60 992.26 60 962 60 Z M1410 121 C1407.36 126.61 1404.72 132.22 1402 138 C1404.97 138 1407.94 138 1411 138 C1411 132.39 1411 126.78 1411 121 C1410.67 121 1410.34 121 1410 121 Z M1232 123 C1232 127.95 1232 132.9 1232 138 C1234.64 138 1237.28 138 1240 138 C1238.45454854 132.52067211 1235.84456788 127.88570819 1233 123 C1232.67 123 1232.34 123 1232 123 Z M80 273 C81.26498822 276.79496465 82.34247048 279.93484315 84.08789062 283.41870117 C84.49591919 284.23783493 84.90394775 285.05696869 85.32434082 285.90092468 C85.76387085 286.77279922 86.20340088 287.64467377 86.65625 288.54296875 C87.11801636 289.46604324 87.57978271 290.38911774 88.05554199 291.34016418 C89.03545861 293.29698074 90.01731588 295.25282652 91.00097656 297.20776367 C92.4712863 300.13042334 93.93540684 303.05611292 95.3984375 305.98242188 C103.32234185 321.80031165 111.44008638 337.5156034 120 353 C122.05874553 350.37366815 123.72242954 347.79747883 125.20141602 344.80834961 C125.60936905 343.98906479 126.01732208 343.16977997 126.43763733 342.32566833 C127.08919044 341.00237267 127.08919044 341.00237267 127.75390625 339.65234375 C128.21425766 338.72643936 128.67460907 337.80053497 129.14891052 336.84657288 C130.62392665 333.87875959 132.09360633 330.9083477 133.5625 327.9375 C135.47759768 324.07018408 137.39552969 320.20429259 139.31640625 316.33984375 C139.79067047 315.38500092 140.26493469 314.43015808 140.75357056 313.44638062 C144.2261883 306.48240226 147.80308374 299.57943128 151.49891663 292.73118591 C154.96627365 286.2497539 157.89793963 279.72113081 161 273 C134.27 273 107.54 273 80 273 Z M962 273 C962 299.73 962 326.46 962 354 C991.37 354 1020.74 354 1051 354 C1051 327.27 1051 300.54 1051 273 C1021.63 273 992.26 273 962 273 Z " transform="translate(95,300)" style="fill: #000000;"/></svg>